<svg width="40" height="40" viewBox="0 0 40 40" fill="none" xmlns="http://www.w3.org/2000/svg">
<path d="M26 27V17C26 15.9391 25.5786 14.9217 24.8284 14.1716C24.0783 13.4214 23.0609 13 22 13H14C12.9391 13 11.9217 13.4214 11.1716 14.1716C10.4214 14.9217 10 15.9391 10 17V25C10 25.5304 10.2107 26.0391 10.5858 26.4142C10.9609 26.7893 11.4696 27 12 27H14" stroke="#6A7282" stroke-width="2" stroke-linecap="round" stroke-linejoin="round"/>
<path d="M10 17H13C13.2652 17 13.5196 17.1054 13.7071 17.2929C13.8946 17.4804 14 17.7348 14 18V20C14 20.2652 13.8946 20.5196 13.7071 20.7071C13.5196 20.8946 13.2652 21 13 21H10" stroke="#6A7282" stroke-width="2" stroke-linecap="round" stroke-linejoin="round"/>
<path d="M30 25V26C30 26.2652 29.8946 26.5196 29.7071 26.7071C29.5196 26.8946 29.2652 27 29 27H18V18C18 17.7348 18.1054 17.4804 18.2929 17.2929C18.4804 17.1054 18.7348 17 19 17H21C21.2652 17 21.5196 17.1054 21.7071 17.2929C21.8946 17.4804 22 17.7348 22 18V27" stroke="#6A7282" stroke-width="2" stroke-linecap="round" stroke-linejoin="round"/>
<path d="M16 29C17.1046 29 18 28.1046 18 27C18 25.8954 17.1046 25 16 25C14.8954 25 14 25.8954 14 27C14 28.1046 14.8954 29 16 29Z" stroke="#6A7282" stroke-width="2" stroke-linecap="round" stroke-linejoin="round"/>
</svg>
