<svg width="36" height="36" viewBox="0 0 36 36" fill="none" xmlns="http://www.w3.org/2000/svg">
<path d="M0 14.0071C0 6.27119 6.27119 0 14.0071 0H21.9928C29.7288 0 35.9999 6.27119 35.9999 14.0071V21.9928C35.9999 29.7288 29.7288 35.9999 21.9928 35.9999H14.0071C6.27119 35.9999 0 29.7288 0 21.9928V14.0071Z" fill="#F3F4F6"/>
<path d="M15.499 25.503H12.1644C11.7221 25.503 11.2981 25.3273 10.9854 25.0146C10.6727 24.7019 10.497 24.2778 10.497 23.8356V12.1643C10.497 11.7221 10.6727 11.298 10.9854 10.9853C11.2981 10.6726 11.7221 10.497 12.1644 10.497H15.499" stroke="#4A5565" stroke-width="1.66649" stroke-linecap="round" stroke-linejoin="round"/>
<path d="M21.3347 22.1683L25.503 17.9999L21.3347 13.8316" stroke="#4A5565" stroke-width="1.66649" stroke-linecap="round" stroke-linejoin="round"/>
<path d="M25.503 17.9999H15.499" stroke="#4A5565" stroke-width="1.66649" stroke-linecap="round" stroke-linejoin="round"/>
</svg>
