<svg width="36" height="36" viewBox="0 0 36 36" fill="none" xmlns="http://www.w3.org/2000/svg">
<path d="M0 14.0071C0 6.27119 6.27119 0 14.0071 0H21.9928C29.7288 0 35.9999 6.27119 35.9999 14.0071V21.9928C35.9999 29.7288 29.7288 35.9999 21.9928 35.9999H14.0071C6.27119 35.9999 0 29.7288 0 21.9928V14.0071Z" fill="#FFE2E2"/>
<path d="M23.8357 19.6673C25.0778 18.4501 26.3367 16.9912 26.3367 15.0821C26.3367 13.8661 25.8536 12.6998 24.9937 11.8399C24.1338 10.98 22.9676 10.497 21.7515 10.497C20.2843 10.497 19.2505 10.9138 18 12.1643C16.7495 10.9138 15.7158 10.497 14.2485 10.497C13.0324 10.497 11.8662 10.98 11.0063 11.8399C10.1464 12.6998 9.66335 13.8661 9.66335 15.0821C9.66335 16.9996 10.9138 18.4585 12.1643 19.6673L18 25.503L23.8357 19.6673Z" stroke="#E7000B" stroke-width="1.66649" stroke-linecap="round" stroke-linejoin="round"/>
</svg>
