<svg width="36" height="36" viewBox="0 0 36 36" fill="none" xmlns="http://www.w3.org/2000/svg">
<path d="M0 14.0071C0 6.27119 6.27119 0 14.0071 0H21.9928C29.7288 0 35.9999 6.27119 35.9999 14.0071V21.9928C35.9999 29.7288 29.7288 35.9999 21.9928 35.9999H14.0071C6.27119 35.9999 0 29.7288 0 21.9928V14.0071Z" fill="#F3F4F6"/>
<g clip-path="url(#clip0_1_490)">
<path d="M18.1834 9.66328H17.8166C17.3744 9.66328 16.9503 9.83895 16.6376 10.1516C16.3249 10.4643 16.1493 10.8884 16.1493 11.3306V11.4807C16.149 11.7731 16.0718 12.0602 15.9255 12.3134C15.7791 12.5665 15.5688 12.7767 15.3156 12.9229L14.9571 13.1313C14.7037 13.2777 14.4161 13.3547 14.1235 13.3547C13.8308 13.3547 13.5433 13.2777 13.2898 13.1313L13.1648 13.0646C12.7822 12.8439 12.3276 12.7841 11.9009 12.8982C11.4742 13.0123 11.1102 13.291 10.8888 13.6732L10.7054 13.99C10.4847 14.3726 10.4249 14.8272 10.539 15.2539C10.6531 15.6805 10.9318 16.0445 11.314 16.2659L11.4391 16.3493C11.6911 16.4948 11.9006 16.7037 12.0468 16.9552C12.1931 17.2068 12.271 17.4922 12.2727 17.7832V18.2084C12.2739 18.5022 12.1974 18.7911 12.051 19.0458C11.9046 19.3005 11.6935 19.512 11.4391 19.6589L11.314 19.734C10.9318 19.9554 10.6531 20.3193 10.539 20.746C10.4249 21.1727 10.4847 21.6273 10.7054 22.0099L10.8888 22.3267C11.1102 22.7089 11.4742 22.9876 11.9009 23.1017C12.3276 23.2158 12.7822 23.156 13.1648 22.9353L13.2898 22.8686C13.5433 22.7222 13.8308 22.6452 14.1235 22.6452C14.4161 22.6452 14.7037 22.7222 14.9571 22.8686L15.3156 23.077C15.5688 23.2232 15.7791 23.4334 15.9255 23.6865C16.0718 23.9397 16.149 24.2268 16.1493 24.5192V24.6693C16.1493 25.1115 16.3249 25.5356 16.6376 25.8483C16.9503 26.1609 17.3744 26.3366 17.8166 26.3366H18.1834C18.6256 26.3366 19.0497 26.1609 19.3624 25.8483C19.6751 25.5356 19.8508 25.1115 19.8508 24.6693V24.5192C19.8511 24.2268 19.9282 23.9397 20.0746 23.6865C20.2209 23.4334 20.4312 23.2232 20.6844 23.077L21.0429 22.8686C21.2964 22.7222 21.5839 22.6452 21.8766 22.6452C22.1692 22.6452 22.4568 22.7222 22.7102 22.8686L22.8353 22.9353C23.2179 23.156 23.6724 23.2158 24.0991 23.1017C24.5258 22.9876 24.8898 22.7089 25.1112 22.3267L25.2946 22.0015C25.5153 21.6189 25.5752 21.1644 25.4611 20.7377C25.347 20.311 25.0682 19.947 24.686 19.7256L24.561 19.6589C24.3065 19.512 24.0954 19.3005 23.949 19.0458C23.8026 18.7911 23.7261 18.5022 23.7273 18.2084V17.7915C23.7261 17.4977 23.8026 17.2088 23.949 16.9541C24.0954 16.6994 24.3065 16.4879 24.561 16.341L24.686 16.2659C25.0682 16.0445 25.347 15.6805 25.4611 15.2539C25.5752 14.8272 25.5153 14.3726 25.2946 13.99L25.1112 13.6732C24.8898 13.291 24.5258 13.0123 24.0991 12.8982C23.6724 12.7841 23.2179 12.8439 22.8353 13.0646L22.7102 13.1313C22.4568 13.2777 22.1692 13.3547 21.8766 13.3547C21.5839 13.3547 21.2964 13.2777 21.0429 13.1313L20.6844 12.9229C20.4312 12.7767 20.2209 12.5665 20.0746 12.3134C19.9282 12.0602 19.8511 11.7731 19.8508 11.4807V11.3306C19.8508 10.8884 19.6751 10.4643 19.3624 10.1516C19.0497 9.83895 18.6256 9.66328 18.1834 9.66328Z" stroke="#4A5565" stroke-width="1.66649" stroke-linecap="round" stroke-linejoin="round"/>
<path d="M18 20.5009C19.3813 20.5009 20.501 19.3812 20.501 17.9999C20.501 16.6187 19.3813 15.4989 18 15.4989C16.6187 15.4989 15.499 16.6187 15.499 17.9999C15.499 19.3812 16.6187 20.5009 18 20.5009Z" stroke="#4A5565" stroke-width="1.66649" stroke-linecap="round" stroke-linejoin="round"/>
</g>
<defs>
<clipPath id="clip0_1_490">
<rect width="19.9979" height="19.9979" fill="white" transform="translate(7.996 7.99594) scale(1.00051)"/>
</clipPath>
</defs>
</svg>
