<svg width="36" height="36" viewBox="0 0 36 36" fill="none" xmlns="http://www.w3.org/2000/svg">
<path d="M0 14.0071C0 6.27119 6.27119 0 14.0071 0H21.9928C29.7288 0 35.9999 6.27119 35.9999 14.0071V21.9928C35.9999 29.7288 29.7288 35.9999 21.9928 35.9999H14.0071C6.27119 35.9999 0 29.7288 0 21.9928V14.0071Z" fill="#D0FAE5"/>
<path d="M14.6653 9.66328V12.998" stroke="#009966" stroke-width="1.66649" stroke-linecap="round" stroke-linejoin="round"/>
<path d="M21.3347 9.66328V12.998" stroke="#009966" stroke-width="1.66649" stroke-linecap="round" stroke-linejoin="round"/>
<path d="M23.8357 11.3306H12.1644C11.2435 11.3306 10.497 12.0771 10.497 12.998V24.6693C10.497 25.5901 11.2435 26.3366 12.1644 26.3366H23.8357C24.7565 26.3366 25.503 25.5901 25.503 24.6693V12.998C25.503 12.0771 24.7565 11.3306 23.8357 11.3306Z" stroke="#009966" stroke-width="1.66649" stroke-linecap="round" stroke-linejoin="round"/>
<path d="M10.497 16.3326H25.503" stroke="#009966" stroke-width="1.66649" stroke-linecap="round" stroke-linejoin="round"/>
</svg>
