<svg width="24" height="24" viewBox="0 0 24 24" fill="none" xmlns="http://www.w3.org/2000/svg">
<path d="M15 21V13C15 12.7348 14.8946 12.4804 14.7071 12.2929C14.5196 12.1053 14.2652 12 14 12H9.99999C9.73478 12 9.48042 12.1053 9.29289 12.2929C9.10535 12.4804 8.99999 12.7348 8.99999 13V21" stroke="#99A1AF" stroke-width="1.99948" stroke-linecap="round" stroke-linejoin="round"/>
<path d="M2.99998 9.99998C2.99991 9.70905 3.06331 9.42161 3.18576 9.1577C3.30822 8.8938 3.48677 8.65978 3.70898 8.47199L10.709 2.47299C11.07 2.1679 11.5273 2.00051 12 2.00051C12.4726 2.00051 12.93 2.1679 13.291 2.47299L20.291 8.47199C20.5132 8.65978 20.6917 8.8938 20.8142 9.1577C20.9366 9.42161 21 9.70905 21 9.99998V19C21 19.5304 20.7892 20.0391 20.4142 20.4142C20.0391 20.7893 19.5304 21 19 21H4.99997C4.46954 21 3.96084 20.7893 3.58576 20.4142C3.21069 20.0391 2.99998 19.5304 2.99998 19V9.99998Z" stroke="#99A1AF" stroke-width="1.99948" stroke-linecap="round" stroke-linejoin="round"/>
</svg>
